<svg fill="#000000" xmlns="http://www.w3.org/2000/svg" xmlns:xlink="http://www.w3.org/1999/xlink" version="1.1" x="0px" y="0px" viewBox="0 0 100 100" enable-background="new 0 0 100 100" xml:space="preserve"><path fill="#000000" d="M45.432,80.694L43.85,95C21.974,92.407,5,73.717,5,51.03c0-9.82,3.192-18.881,8.578-26.218l-5.129-5.155  c-2.999-3.014-2.004-5.865,2.211-6.336l19.724-2.203c4.215-0.471,7.281,2.611,6.812,6.847l-2.19,19.826  c-0.469,4.236-3.306,5.237-6.304,2.223l-4.814-4.839c-2.885,4.598-4.567,10.028-4.567,15.856  C19.32,66.277,30.739,78.887,45.432,80.694z M86.422,75.233C91.809,67.895,95,58.835,95,49.015C95,26.208,77.847,7.435,55.803,5  l-1.581,14.306c14.859,1.649,26.458,14.34,26.458,29.709c0,5.828-1.681,11.258-4.565,15.856l-4.815-4.839  c-2.998-3.014-5.835-2.014-6.304,2.223l-2.19,19.826c-0.469,4.236,2.597,7.318,6.812,6.847l19.724-2.203  c4.215-0.471,5.21-3.322,2.211-6.336L86.422,75.233z"/></svg>