<svg fill="#000000" xmlns="http://www.w3.org/2000/svg" xmlns:xlink="http://www.w3.org/1999/xlink" xml:space="preserve" version="1.1" style="shape-rendering:geometricPrecision;text-rendering:geometricPrecision;image-rendering:optimizeQuality;" viewBox="0 0 250 334" x="0px" y="0px" fill-rule="evenodd" clip-rule="evenodd"><defs><style type="text/css">.fil0{fill:#000000}</style></defs><g><path class="fil0" d="M47 0l156 0c4,0 7,3 7,7l0 11c0,1 0,2 -1,3l33 0c5,0 8,3 8,7 0,23 -3,43 -12,60 -8,16 -20,29 -41,40 -5,26 -24,47 -49,54 -1,6 -4,11 -9,13l0 39 12 0 0 14 38 0 0 57 16 0 0 29 -160 0 0 -29 16 0 0 -57 38 0 0 -14 12 0 0 -39c-5,-2 -8,-7 -9,-13 -25,-7 -45,-28 -50,-54 -20,-11 -33,-24 -41,-40 -8,-17 -11,-37 -11,-60 0,-4 3,-7 7,-7l34 0c-1,-1 -1,-2 -1,-3l0 -11c0,-4 3,-7 7,-7zm81 76l6 18 20 0c4,0 5,5 2,7l-16 11 6 19c2,4 -3,6 -5,4l-16 -11 -16 11c-3,2 -7,0 -6,-4l7 -19 -16 -11c-3,-2 -2,-7 2,-7l19 0 6 -18c2,-4 6,-4 7,0zm-84 101l5 14 13 4c4,2 4,6 0,7l-13 5 -5 14c-1,3 -5,3 -7,0l-4 -14 -14 -5c-3,-1 -3,-5 0,-7l14 -4 4 -14c1,-3 6,-3 7,0zm155 -141l0 74c12,-8 21,-18 26,-29 7,-13 9,-28 10,-45l-36 0zm-148 74l0 -74 -36 0c0,17 3,32 10,45 5,11 14,21 26,29zm74 -47c23,0 42,18 42,41 0,24 -19,42 -42,42 -23,0 -42,-18 -42,-42 0,-23 19,-41 42,-41z"/></g></svg>